<svg version="1.1" id="Layer_1" xmlns="http://www.w3.org/2000/svg" xmlns:xlink="http://www.w3.org/1999/xlink" x="0px" y="0px"
	 width="100%" viewBox="0 0 1396 1396" enable-background="new 0 0 1396 1396" xml:space="preserve">

<rect x="882" y="503" width="77" height="62" rx="10" 
      fill="#DB6359" opacity="1.000000" stroke="none" />
<rect x="507" y="371" width="77" height="62" rx="10" 
      fill="#E27254" opacity="1.00" stroke="none" />
<rect x="882" y="771" width="77" height="62" rx="10" 
      fill="#DA5458" opacity="1.000000" stroke="none" />
<rect x="882" y="572" width="77" height="62" rx="10" 
      fill="#DB5B58" opacity="1.000000" stroke="none" />
<rect x="1210" y="971" width="77" height="62" rx="10" 
      fill="#D64A55" opacity="1.000000" stroke="none" />
<rect x="882" y="638" width="77" height="62" rx="10" 
      fill="#DB5A58" opacity="1.000000" stroke="none" />
<rect x="1291" y="971" width="77" height="62" rx="10" 
      fill="#D64A55" opacity="1.000000" stroke="none" />
<rect x="1128" y="971" width="77" height="62" rx="10" 
      fill="#D84A55" opacity="1.000000" stroke="none" />
<rect x="966" y="971" width="77" height="62" rx="10" 
      fill="#D84A55" opacity="1.000000" stroke="none" />
<rect x="372" y="371" width="40" height="29" rx="10" 
      fill="#E27254" opacity="1.000000" stroke="none" />
<rect x="167" y="904" width="40" height="29" rx="10" 
      fill="#D84952" opacity="1.000000" stroke="none" />
<rect x="53" y="638" width="40" height="29" rx="10" 
      fill="#DA5E53" opacity="1.000000" stroke="none" />
<rect x="91" y="804" width="40" height="29" rx="10" 
      fill="#D94A4F" opacity="1.000000" stroke="none" />
<rect x="21" y="704" width="40" height="29" rx="10" 
      fill="#D95353" opacity="1.000000" stroke="none" />
<rect x="167" y="670" width="40" height="29" rx="10" 
      fill="#D95653" opacity="1.000000" stroke="none" />
<rect x="21" y="470" width="40" height="29" rx="10" 
      fill="#E27254" opacity="1.000000" stroke="none" />
<rect x="130" y="638" width="40" height="29" rx="10" 
      fill="#DA5E53" opacity="1.000000" stroke="none" />
<rect x="167" y="572" width="40" height="29" rx="10" 
      fill="#DC5F56" opacity="1.000000" stroke="none" />
<rect x="167" y="971" width="40" height="29" rx="10" 
      fill="#D84952" opacity="1.000000" stroke="none" />
<rect x="205" y="403" width="40" height="29" rx="10" 
      fill="#E57957" opacity="1.000000" stroke="none" />
<rect x="244" y="371" width="40" height="29" rx="10" 
      fill="#E57957" opacity="1.000000" stroke="none" />
<rect x="21" y="371" width="40" height="29" rx="10" 
      fill="#E57957" opacity="1.000000" stroke="none" />
<rect x="130" y="371" width="40" height="29" rx="10" 
      fill="#E57957" opacity="1.000000" stroke="none" />
<rect x="21" y="771" width="40" height="29" rx="10" 
      fill="#D94A4F" opacity="1.000000" stroke="none" />
<rect x="21" y="572" width="40" height="29" rx="10" 
      fill="#DD6559" opacity="1.000000" stroke="none" />
<rect x="328" y="1002" width="40" height="29" rx="10" 
      fill="#DF4650" opacity="1.000000" stroke="none" />
<rect x="91" y="604" width="40" height="29" rx="10" 
      fill="#DC5F56" opacity="1.000000" stroke="none" />
<rect x="244" y="971" width="40" height="29" rx="10" 
      fill="#DF4650" opacity="1.000000" stroke="none" />
<rect x="244" y="904" width="40" height="29" rx="10" 
      fill="#DF4650" opacity="1.000000" stroke="none" />
<rect x="589" y="971" width="77" height="62" rx="10" 
      fill="#BF6A6D" opacity="1.000000" stroke="none" />
<rect x="328" y="437" width="40" height="29" rx="10" 
      fill="#E57957" opacity="1.000000" stroke="none" />
<rect x="882" y="838" width="77" height="62" rx="10" 
      fill="#BF6A6D" opacity="1.000000" stroke="none" />
<rect x="589" y="904" width="77" height="62" rx="10" 
      fill="#D94C54" opacity="1.000000" stroke="none" />
<rect x="670" y="704" width="77" height="62" rx="10" 
      fill="#D95653" opacity="1.000000" stroke="none" />
<rect x="752" y="771" width="77" height="62" rx="10" 
      fill="#DA5458" opacity="1.000000" stroke="none" />
<rect x="589" y="638" width="77" height="62" rx="10" 
      fill="#DA5E53" opacity="1.000000" stroke="none" />
<rect x="670" y="971" width="77" height="62" rx="10" 
      fill="#D84952" opacity="1.000000" stroke="none" />
<rect x="670" y="904" width="77" height="62" rx="10" 
      fill="#D94C54" opacity="1.000000" stroke="none" />
<rect x="589" y="704" width="77" height="62" rx="10" 
      fill="#D95653" opacity="1.000000" stroke="none" />
<rect x="752" y="838" width="77" height="62" rx="10" 
      fill="#D94F56" opacity="1.000000" stroke="none" />
<rect x="670" y="838" width="77" height="62" rx="10" 
      fill="#DA4E53" opacity="1.000000" stroke="none" />
<rect x="670" y="638" width="77" height="62" rx="10" 
      fill="#DA5E53" opacity="1.000000" stroke="none" />
<rect x="507" y="904" width="77" height="62" rx="10" 
      fill="#D94C54" opacity="1.000000" stroke="none" />
<rect x="670" y="771" width="77" height="62" rx="10" 
      fill="#D95353" opacity="1.000000" stroke="none" />
<rect x="752" y="638" width="77" height="62" rx="10" 
      fill="#DB5B58" opacity="1.000000" stroke="none" />
<rect x="509" y="971" width="77" height="62" rx="10" 
      fill="#D84952" opacity="1.000000" stroke="none" />
<rect x="589" y="971" width="77" height="62" rx="10" 
      fill="#D84952" opacity="1.000000" stroke="none" />
<rect x="752" y="904" width="77" height="62" rx="10" 
      fill="#D94C54" opacity="1.000000" stroke="none" />
<rect x="418" y="904" width="40" height="29" rx="10" 
      fill="#D64A55" opacity="1.000000" stroke="none" />
<rect x="418" y="971" width="40" height="29" rx="10" 
      fill="#D84952" opacity="1.000000" stroke="none" />
<rect x="418" y="936" width="40" height="29" rx="10" 
      fill="#D84952" opacity="1.000000" stroke="none" />
<rect x="372" y="904" width="40" height="29" rx="10" 
      fill="#D84952" opacity="1.000000" stroke="none" />
<rect x="328" y="737" width="40" height="29" rx="10" 
      fill="#D95653" opacity="1.000000" stroke="none" />
<rect x="460" y="904" width="40" height="29" rx="10" 
      fill="#D84952" opacity="1.000000" stroke="none" />
<rect x="460" y="1002" width="40" height="29" rx="10" 
      fill="#D84952" opacity="1.000000" stroke="none" />
<rect x="372" y="737" width="40" height="29" rx="10" 
      fill="#D95653" opacity="1.000000" stroke="none" />
<rect x="460" y="971" width="40" height="29" rx="10" 
      fill="#D84952" opacity="1.000000" stroke="none" />
<rect x="372" y="837" width="40" height="29" rx="10" 
      fill="#D74F51" opacity="1.000000" stroke="none" />
<rect x="460" y="837" width="40" height="29" rx="10" 
      fill="#D74F51" opacity="1.000000" stroke="none" />
<rect x="244" y="704" width="40" height="29" rx="10" 
      fill="#D95653" opacity="1.000000" stroke="none" />
<rect x="418" y="571" width="40" height="29" rx="10" 
      fill="#DC5F56" opacity="1.000000" stroke="none" />
<rect x="372" y="670" width="40" height="29" rx="10" 
      fill="#DC5F56" opacity="1.000000" stroke="none" />
<rect x="460" y="936" width="40" height="29" rx="10" 
      fill="#D84952" opacity="1.000000" stroke="none" />
<rect x="205" y="837" width="40" height="29" rx="10" 
      fill="#D94A4F" opacity="1.000000" stroke="none" />
<rect x="167" y="804" width="40" height="29" rx="10" 
      fill="#D94A4F" opacity="1.000000" stroke="none" />
<rect x="372" y="771" width="40" height="29" rx="10" 
      fill="#D95353" opacity="1.000000" stroke="none" />
<rect x="460" y="871" width="40" height="29" rx="10" 
      fill="#D84952" opacity="1.000000" stroke="none" />
<rect x="130" y="837" width="40" height="29" rx="10" 
      fill="#D94A4F" opacity="1.000000" stroke="none" />
<rect x="284" y="837" width="40" height="29" rx="10" 
      fill="#D94A4F" opacity="1.000000" stroke="none" />
<rect x="328" y="771" width="40" height="29" rx="10" 
      fill="#D74F51" opacity="1.000000" stroke="none" />
<rect x="372" y="804" width="40" height="29" rx="10" 
      fill="#D95353" opacity="1.000000" stroke="none" />
<rect x="418" y="737" width="40" height="29" rx="10" 
      fill="#D95653" opacity="1.000000" stroke="none" />
<rect x="418" y="871" width="40" height="29" rx="10" 
      fill="#D94C54" opacity="1.000000" stroke="none" />
<rect x="418" y="771" width="40" height="29" rx="10" 
      fill="#D95353" opacity="1.000000" stroke="none" />
<rect x="328" y="871" width="40" height="29" rx="10" 
      fill="#D94A4F" opacity="1.000000" stroke="none" />
<rect x="418" y="837" width="40" height="29" rx="10" 
      fill="#DA4E53" opacity="1.000000" stroke="none" />
<rect x="372" y="637" width="40" height="29" rx="10" 
      fill="#DC5F56" opacity="1.000000" stroke="none" />
<rect x="284" y="737" width="40" height="29" rx="10" 
      fill="#D95653" opacity="1.000000" stroke="none" />
<rect x="284" y="771" width="40" height="29" rx="10" 
      fill="#D74F51" opacity="1.000000" stroke="none" />
<rect x="244" y="804" width="40" height="29" rx="10" 
      fill="#D74F51" opacity="1.000000" stroke="none" />
<rect x="372" y="704" width="40" height="29" rx="10" 
      fill="#DB5757" opacity="1.000000" stroke="none" />
<rect x="372" y="604" width="40" height="29" rx="10" 
      fill="#DC5F56" opacity="1.000000" stroke="none" />
<rect x="244" y="637" width="40" height="29" rx="10" 
      fill="#DC5F56" opacity="1.000000" stroke="none" />
<rect x="372" y="871" width="40" height="29" rx="10" 
      fill="#DF4650" opacity="1.000000" stroke="none" />
<rect x="1128" y="904" width="77" height="62" rx="10" 
      fill="#D94F56" opacity="1.000000" stroke="none" />
<rect x="1209" y="904" width="77" height="62" rx="10" 
      fill="#D94F56" opacity="1.000000" stroke="none" />
<rect x="966" y="704" width="77" height="62" rx="10" 
      fill="#D95758" opacity="1.000000" stroke="none" />
<rect x="966" y="503" width="77" height="62" rx="10" 
      fill="#DB6359" opacity="1.000000" stroke="none" />
<rect x="1047" y="904" width="77" height="62" rx="10" 
      fill="#D94F56" opacity="1.000000" stroke="none" />
<rect x="966" y="638" width="77" height="62" rx="10" 
      fill="#DB5A58" opacity="1.000000" stroke="none" />
<rect x="966" y="371" width="77" height="62" rx="10" 
      fill="#DD6559" opacity="1.000000" stroke="none" />
<rect x="882" y="437" width="77" height="62" rx="10" 
      fill="#DD6559" opacity="1.000000" stroke="none" />
<rect x="882" y="971" width="77" height="62" rx="10" 
      fill="#D84A55" opacity="1.000000" stroke="none" />
<rect x="882" y="371" width="77" height="62" rx="10" 
      fill="#DD6559" opacity="1.000000" stroke="none" />
<rect x="882" y="904" width="77" height="62" rx="10" 
      fill="#DA4C56" opacity="1.000000" stroke="none" />
<rect x="882" y="838" width="77" height="62" rx="10" 
      fill="#DC5158" opacity="1.000000" stroke="none" />
<rect x="882" y="704" width="77" height="62" rx="10" 
      fill="#D95758" opacity="1.000000" stroke="none" />
<rect x="966" y="771" width="77" height="62" rx="10" 
      fill="#DA5458" opacity="1.000000" stroke="none" />
<rect x="966" y="904" width="77" height="62" rx="10" 
      fill="#DA4C56" opacity="1.000000" stroke="none" />
<rect x="966" y="437" width="77" height="62" rx="10" 
      fill="#DD6559" opacity="1.000000" stroke="none" />
<rect x="1291" y="904" width="77" height="62" rx="10" 
      fill="#D94F56" opacity="1.000000" stroke="none" />
<rect x="966" y="572" width="77" height="62" rx="10" 
      fill="#DB5B58" opacity="1.000000" stroke="none" />
<rect x="1047" y="971" width="77" height="62" rx="10" 
      fill="#D84A55" opacity="1.000000" stroke="none" />
<rect x="966" y="838" width="77" height="62" rx="10" 
      fill="#DC5158" opacity="1.000000" stroke="none" />
<rect x="670" y="437" width="77" height="62" rx="10" 
      fill="#DD6956" opacity="1.000000" stroke="none" />
<rect x="507" y="437" width="77" height="62" rx="10" 
      fill="#DD6C56" opacity="1.000000" stroke="none" />
<rect x="670" y="371" width="77" height="62" rx="10" 
      fill="#E16F53" opacity="1.000000" stroke="none" />
<rect x="589" y="371" width="77" height="62" rx="10" 
      fill="#E27254" opacity="1.000000" stroke="none" />
<rect x="589" y="437" width="77" height="62" rx="10" 
      fill="#DD6C56" opacity="1.000000" stroke="none" />
<rect x="418" y="536" width="40" height="29" rx="10" 
      fill="#DB6359" opacity="1.000000" stroke="none" />
<rect x="460" y="470" width="40" height="29" rx="10" 
      fill="#DD6C56" opacity="1.000000" stroke="none" />
<rect x="460" y="536" width="40" height="29" rx="10" 
      fill="#DB6359" opacity="1.000000" stroke="none" />
<rect x="460" y="437" width="40" height="29" rx="10" 
      fill="#E27254" opacity="1.000000" stroke="none" />
<rect x="418" y="503" width="40" height="29" rx="10" 
      fill="#DD6956" opacity="1.000000" stroke="none" />
<rect x="460" y="403" width="40" height="29" rx="10" 
      fill="#E27254" opacity="1.000000" stroke="none" />
<rect x="460" y="503" width="40" height="29" rx="10" 
      fill="#DD6C56" opacity="1.000000" stroke="none" />
<rect x="418" y="470" width="40" height="29" rx="10" 
      fill="#E27254" opacity="1.000000" stroke="none" />
<rect x="460" y="371" width="40" height="29" rx="10" 
      fill="#E57957" opacity="1.000000" stroke="none" />
<rect x="372" y="470" width="40" height="29" rx="10" 
      fill="#E16F53" opacity="1.000000" stroke="none" />
<rect x="418" y="437" width="40" height="29" rx="10" 
      fill="#E27254" opacity="1.000000" stroke="none" />
<rect x="328" y="503" width="40" height="29" rx="10" 
      fill="#DD6956" opacity="1.000000" stroke="none" />
<rect x="244" y="503" width="40" height="29" rx="10" 
      fill="#DD6C56" opacity="1.000000" stroke="none" />
<rect x="167" y="503" width="40" height="29" rx="10" 
      fill="#E27254" opacity="1.000000" stroke="none" />
<rect x="244" y="470" width="40" height="29" rx="10" 
      fill="#E27254" opacity="1.000000" stroke="none" />
<rect x="328" y="437" width="40" height="29" rx="10" 
      fill="#E27254" opacity="1.000000" stroke="none" />
<rect x="205" y="737" width="40" height="29" rx="10" 
      fill="#DF5351" opacity="1.000000" stroke="none" />
<rect x="91" y="737" width="40" height="29" rx="10" 
      fill="#DF5351" opacity="1.000000" stroke="none" />
<rect x="130" y="704" width="40" height="29" rx="10" 
      fill="#DF5351" opacity="1.000000" stroke="none" />
<rect x="328" y="936" width="40" height="29" rx="10" 
      fill="#DF4650" opacity="1.000000" stroke="none" />
<rect x="372" y="536" width="40" height="29" rx="10" 
      fill="#DB6359" opacity="1.000000" stroke="none" />
<rect x="328" y="670" width="40" height="29" rx="10" 
      fill="#DA5E53" opacity="1.000000" stroke="none" />
<rect x="328" y="704" width="40" height="29" rx="10" 
      fill="#D95653" opacity="1.000000" stroke="none" />
<rect x="372" y="572" width="40" height="29" rx="10" 
      fill="#DB6359" opacity="1.000000" stroke="none" />
<rect x="328" y="604" width="40" height="29" rx="10" 
      fill="#DC5F56" opacity="1.000000" stroke="none" />
<rect x="328" y="638" width="40" height="29" rx="10" 
      fill="#DC5F56" opacity="1.000000" stroke="none" />
<rect x="284" y="536" width="40" height="29" rx="10" 
      fill="#DD6559" opacity="1.000000" stroke="none" />
<rect x="328" y="572" width="40" height="29" rx="10" 
      fill="#DC5F56" opacity="1.000000" stroke="none" />
<rect x="205" y="536" width="40" height="29" rx="10" 
      fill="#DD6956" opacity="1.000000" stroke="none" />
<rect x="205" y="604" width="40" height="29" rx="10" 
      fill="#DC5F56" opacity="1.000000" stroke="none" />
<rect x="244" y="572" width="40" height="29" rx="10" 
      fill="#DD6559" opacity="1.000000" stroke="none" />
<rect x="284" y="670" width="40" height="29" rx="10" 
      fill="#D95653" opacity="1.000000" stroke="none" />
<rect x="284" y="604" width="40" height="29" rx="10" 
      fill="#DC5F56" opacity="1.000000" stroke="none" />
<rect x="752" y="704" width="77" height="62" rx="10" 
      fill="#DB5757" opacity="1.000000" stroke="none" />
<rect x="328" y="804" width="40" height="29" rx="10" 
      fill="#D74F51" opacity="1.000000" stroke="none" />
<rect x="372" y="503" width="40" height="29" rx="10" 
      fill="#DD6C56" opacity="1.000000" stroke="none" />
</svg>
